<?xml version="1.0" encoding="UTF-8"?>
<svg version="1.1" xmlns="http://www.w3.org/2000/svg" width="128" height="128">
<path d="M0 0 C5.36610782 3.45238836 9.24336931 8.32975902 11.1796875 14.40234375 C12.05234006 21.75900779 11.7369926 28.35406846 7.1796875 34.40234375 C2.10440725 39.84829053 -3.29408255 42.56090292 -10.6953125 42.83984375 C-17.45592765 42.63092486 -21.83578516 41.18002266 -26.79296875 36.56640625 C-31.86350475 31.13145801 -34.37752777 26.24742452 -34.12890625 18.61328125 C-33.2858184 12.5729303 -31.09388653 7.13646923 -26.5703125 2.96484375 C-18.32508825 -3.24104998 -9.35027296 -4.54572094 0 0 Z M-22.36328125 7.73046875 C-26.44220486 12.27589682 -27.85347837 16.31289374 -27.7578125 22.33984375 C-27.00900667 26.88492103 -25.01690555 30.12778502 -21.8203125 33.40234375 C-17.04943546 36.76364348 -12.47590252 37.13472231 -6.8203125 36.40234375 C-1.54709097 34.57699784 0.97659836 31.79515172 4.1796875 27.40234375 C5.77676499 22.61111127 6.21553229 17.89095012 4.23828125 13.140625 C1.86620599 9.11776382 -0.36962443 6.1619181 -4.8203125 4.40234375 C-11.38599667 2.89546542 -17.05231851 3.15900715 -22.36328125 7.73046875 Z " fill="#F6A71C" transform="translate(76.8203125,45.59765625)"/>
<path d="M0 0 C1.32 0.66 2.64 1.32 4 2 C3.15715945 7.00159328 0.00882144 10.07989006 -4 13 C-6.9375 12.9375 -6.9375 12.9375 -9 12 C-8.52379711 7.62346871 -7.33100111 5.93461995 -3.9375 3.1875 C-3.20402344 2.58292969 -2.47054687 1.97835937 -1.71484375 1.35546875 C-1.14894531 0.90816406 -0.58304688 0.46085937 0 0 Z " fill="#F6A71C" transform="translate(44,84)"/>
<path d="M0 0 C4.37653129 0.47620289 6.06538005 1.66899889 8.8125 5.0625 C9.41707031 5.79597656 10.02164063 6.52945313 10.64453125 7.28515625 C11.09183594 7.85105469 11.53914063 8.41695312 12 9 C11.34 10.32 10.68 11.64 10 13 C4.99840672 12.15715945 1.92010994 9.00882144 -1 5 C-0.9375 2.0625 -0.9375 2.0625 0 0 Z " fill="#F6A71C" transform="translate(86,84)"/>
<path d="M0 0 C3.84419647 0.38606247 5.35947723 2.16628972 7.75 5.0625 C8.36359375 5.79597656 8.9771875 6.52945313 9.609375 7.28515625 C10.06828125 7.85105469 10.5271875 8.41695312 11 9 C10.34 10.32 9.68 11.64 9 13 C5.48850159 12.41604794 3.70968242 11.16720355 1.1875 8.6875 C0.24970703 7.79611328 0.24970703 7.79611328 -0.70703125 6.88671875 C-2 5 -2 5 -1.76171875 2.83203125 C-1 1 -1 1 0 0 Z " fill="#F6A71C" transform="translate(37,35)"/>
<path d="M0 0 C4.62 0 9.24 0 14 0 C14.33 1.32 14.66 2.64 15 4 C13 6 13 6 10.25 6.265625 C9.1775 6.26046875 8.105 6.2553125 7 6.25 C5.39125 6.25773437 5.39125 6.25773437 3.75 6.265625 C1 6 1 6 -1 4 C-0.67 2.68 -0.34 1.36 0 0 Z " fill="#F6A71C" transform="translate(24,63)"/>
<path d="M0 0 C2.125 1.0625 2.125 1.0625 3.125 3.0625 C2.07785076 4.38727959 1.01155331 5.69693746 -0.0625 7 C-0.65417969 7.73089844 -1.24585937 8.46179688 -1.85546875 9.21484375 C-4.20005203 11.35988803 -5.75891498 11.72344412 -8.875 12.0625 C-9.8125 10 -9.8125 10 -9.875 7.0625 C-7.31272421 3.31412621 -4.69679218 0.10210418 0 0 Z " fill="#F6A71C" transform="translate(94.875,34.9375)"/>
<path d="M0 0 C2.125 0.9375 2.125 0.9375 4 2 C4.05389087 3.95803507 4.09274217 5.91648909 4.125 7.875 C4.14820312 8.96554688 4.17140625 10.05609375 4.1953125 11.1796875 C4 14 4 14 2 16 C0.68 15.67 -0.64 15.34 -2 15 C-2 10.38 -2 5.76 -2 1 C-1.34 0.67 -0.68 0.34 0 0 Z " fill="#F6A71C" transform="translate(65,23)"/>
<path d="M0 0 C1.67542976 0.28604898 3.34385343 0.61781233 5 1 C5.05389087 2.95803507 5.09274217 4.91648909 5.125 6.875 C5.14820312 7.96554688 5.17140625 9.05609375 5.1953125 10.1796875 C5 13 5 13 3 15 C0.875 14.625 0.875 14.625 -1 14 C-1.02685938 11.85423363 -1.04633088 9.70837355 -1.0625 7.5625 C-1.07410156 6.36753906 -1.08570313 5.17257813 -1.09765625 3.94140625 C-1 1 -1 1 0 0 Z " fill="#F6A71C" transform="translate(64,93)"/>
<path d="M0 0 C1.79244141 0.01740234 1.79244141 0.01740234 3.62109375 0.03515625 C5.41740234 0.04869141 5.41740234 0.04869141 7.25 0.0625 C8.17683594 0.07410156 9.10367188 0.08570313 10.05859375 0.09765625 C10.68359375 1.97265625 10.68359375 1.97265625 11.05859375 4.09765625 C9.05859375 6.09765625 9.05859375 6.09765625 6.23828125 6.29296875 C5.14773437 6.26976563 4.0571875 6.2465625 2.93359375 6.22265625 C1.83789062 6.20460938 0.7421875 6.1865625 -0.38671875 6.16796875 C-1.22976562 6.14476563 -2.0728125 6.1215625 -2.94140625 6.09765625 C-3.32359392 4.44150968 -3.65535727 2.77308601 -3.94140625 1.09765625 C-2.94140625 0.09765625 -2.94140625 0.09765625 0 0 Z " fill="#F6A71C" transform="translate(96.94140625,62.90234375)"/>
</svg>
