<?xml version="1.0" encoding="UTF-8"?>
<svg version="1.1" xmlns="http://www.w3.org/2000/svg" width="128" height="128">
<path d="M0 0 C-0.33 1.051875 -0.66 2.10375 -1 3.1875 C-3.02122434 11.44815601 -3.33358752 20.27436772 0.67578125 27.94140625 C6.807195 37.47313205 14.9312288 43.4554549 26 46 C30.98831139 46.79812982 35.98023792 47.43783956 41 48 C39.82925805 59.36053302 34.46938608 68.95575639 25.6953125 76.16015625 C14.08574928 84.08494506 1.21554206 85.90966214 -12.46875 83.3515625 C-23.47906943 80.0314404 -32.99812166 72.3713355 -38.5078125 62.22265625 C-43.67586996 51.22207679 -45.15689473 39.06142226 -41.03515625 27.3671875 C-35.77413097 15.33631459 -28.23237733 6.96940329 -16 2 C-10.54240503 -0.01069288 -5.73386644 -0.23403536 0 0 Z M-25.3125 16.6875 C-33.3051155 25.19785578 -35.49792898 34.6074305 -35.265625 45.91796875 C-34.84181253 54.98215411 -30.80486434 61.24321914 -24.64453125 67.73046875 C-15.84994185 75.27796719 -6.30099849 77.79647995 5 77 C14.6123337 75.44085659 21.60251122 70.3746105 27.5 62.75 C29.18538825 60.40918299 30.0741972 58.77740839 31 56 C30.02160156 55.76925781 29.04320313 55.53851563 28.03515625 55.30078125 C14.28494567 51.9334544 3.04124158 46.83276318 -4.71484375 34.40234375 C-9.17877639 26.05791039 -9.61072204 17.31582427 -10 8 C-15.29459837 8 -21.67140388 13.26181223 -25.3125 16.6875 Z " fill="#6FB5D1" transform="translate(65,22)"/>
</svg>
