<?xml version="1.0" encoding="UTF-8"?>
<svg version="1.1" xmlns="http://www.w3.org/2000/svg" width="128" height="128">
<path d="M0 0 C6.08692071 3.70523501 11.96422573 5.55829129 19.08544922 4.86914062 C26.8709272 2.88053436 26.8709272 2.88053436 34.22998047 -0.26367188 C36.08544922 -1.13085938 36.08544922 -1.13085938 40.08544922 -1.13085938 C40.58044922 0.35414062 40.58044922 0.35414062 41.08544922 1.86914062 C36.63310925 7.53575513 28.99625213 9.78899996 22.08544922 10.86914062 C10.10465376 11.67613721 2.49559518 9.5150435 -7.58642578 3.29882812 C-14.66013072 -1.04509135 -20.71294564 -2.13470167 -28.91455078 -1.13085938 C-31.39159062 -0.29259285 -33.61233255 0.71528769 -35.93408203 1.91210938 C-38.52966573 3.16638552 -41.06259968 3.57663282 -43.91455078 3.86914062 C-44.24455078 2.54914062 -44.57455078 1.22914062 -44.91455078 -0.13085938 C-29.41428507 -11.08495777 -15.69169458 -9.70693462 0 0 Z " fill="#FFFFFF" transform="translate(67.91455078125,51.130859375)"/>
<path d="M0 0 C7.91684533 4.81100601 14.8023862 5.81091816 23.9375 3.875 C27.14222296 2.69696399 30.21905939 1.38579832 33.30859375 -0.06640625 C35.9375 -1.125 35.9375 -1.125 39.9375 -1.125 C39.9375 0.525 39.9375 2.175 39.9375 3.875 C38.02338443 4.85914433 36.1061033 5.83713349 34.1875 6.8125 C33.12015625 7.35777344 32.0528125 7.90304688 30.953125 8.46484375 C22.7299856 12.31012007 12.71755852 12.18258788 4.1875 9.25 C-0.3867096 7.363728 -4.54199536 4.95125601 -8.67578125 2.2421875 C-15.44811847 -1.63722007 -22.43007788 -2.05665716 -30.0625 -1.125 C-32.86395366 -0.00441854 -35.2961293 1.26919385 -37.84375 2.87890625 C-40.64438183 4.13623216 -42.17021581 3.72537229 -45.0625 2.875 C-44.921875 1.07421875 -44.921875 1.07421875 -44.0625 -1.125 C-41.515625 -2.79296875 -41.515625 -2.79296875 -38.3125 -4.3125 C-37.26578125 -4.82167969 -36.2190625 -5.33085938 -35.140625 -5.85546875 C-22.56619317 -11.04162401 -10.87419558 -6.75918844 0 0 Z " fill="#FFFFFF" transform="translate(68.0625,82.125)"/>
<path d="M0 0 C2.08931583 1.21751498 4.1662641 2.4566571 6.2265625 3.72265625 C12.05001437 7.14663027 18.18702994 6.86730998 24.7578125 6.2109375 C28.29199081 5.15030111 31.59734209 3.87017744 34.98046875 2.40234375 C37.26287545 1.42325227 39.33722952 0.71595122 41.7578125 0.2109375 C42.2528125 2.6859375 42.2528125 2.6859375 42.7578125 5.2109375 C31.32193876 11.45940459 21.83149209 14.70978485 8.7578125 12.2109375 C5.11952894 10.93942664 2.0429672 9.06333603 -1.15625 6.94140625 C-8.11887869 2.35050965 -15.76104863 -0.83060587 -24.2421875 0.2109375 C-29.23702024 1.71150079 -33.8900564 3.30951676 -38.2421875 6.2109375 C-40.4296875 5.8359375 -40.4296875 5.8359375 -42.2421875 5.2109375 C-42.2421875 3.8909375 -42.2421875 2.5709375 -42.2421875 1.2109375 C-40.703125 -0.203125 -40.703125 -0.203125 -38.6171875 -1.4140625 C-37.94429687 -1.81882813 -37.27140625 -2.22359375 -36.578125 -2.640625 C-24.2302953 -8.71129713 -11.62509041 -6.41480893 0 0 Z " fill="#FFFFFF" transform="translate(65.2421875,64.7890625)"/>
</svg>
